<?xml version="1.0" encoding="UTF-8"?>
<svg id="Camada_2" data-name="Camada 2" xmlns="http://www.w3.org/2000/svg" xmlns:xlink="http://www.w3.org/1999/xlink" viewBox="0 0 683.97 110.35">
  <defs>
    <style>
      .cls-1 {
        fill: url(#Gradiente_sem_nome_17);
      }

      .cls-2 {
        fill: #070b23;
      }

      .cls-3 {
        fill: url(#Gradiente_sem_nome_18);
      }
    </style>
    <linearGradient id="Gradiente_sem_nome_17" data-name="Gradiente sem nome 17" x1="413.42" y1="94.17" x2="413.42" y2="94.17" gradientUnits="userSpaceOnUse">
      <stop offset="0" stop-color="#0e1860"/>
      <stop offset=".39" stop-color="#ea5400"/>
      <stop offset="1" stop-color="blue"/>
    </linearGradient>
    <linearGradient id="Gradiente_sem_nome_18" data-name="Gradiente sem nome 18" x1="427.16" y1="94.18" x2="683.97" y2="94.18" gradientUnits="userSpaceOnUse">
      <stop offset="0" stop-color="#d9dfff"/>
      <stop offset=".39" stop-color="#ea5400"/>
      <stop offset="1" stop-color="blue"/>
    </linearGradient>
  </defs>
  <g id="Camada_1-2" data-name="Camada 1">
    <g id="G2">
      <g id="Logo">
        <g>
          <path class="cls-2" d="M0,55.45C0,23.2,24.75.56,58.5.56c20.55,0,36.75,7.5,47.1,21l-22.35,19.95c-6.15-7.8-13.5-12.3-22.95-12.3-14.7,0-24.6,10.2-24.6,26.25s9.9,26.25,24.6,26.25c9.45,0,16.8-4.5,22.95-12.3l22.35,19.95c-10.35,13.5-26.55,21-47.1,21C24.75,110.35,0,87.7,0,55.45Z"/>
          <path class="cls-2" d="M203.09,81.25v26.7h-87.3V2.96h85.35v26.7h-50.55v12.3h44.4v25.5h-44.4v13.8h52.5Z"/>
          <path class="cls-2" d="M216.75,2.96h35.4v77.55h47.4v27.45h-82.8V2.96Z"/>
          <path class="cls-2" d="M309.29,2.96h35.4v77.55h47.4v27.45h-82.8V2.96Z"/>
        </g>
        <g>
          <path class="cls-2" d="M414.57,34.1c0-19.95,15.39-34.1,36.94-34.1,13.91,0,24.87,6.03,29.67,16.87l-14.9,8c-3.57-6.28-8.86-9.11-14.9-9.11-9.73,0-17.36,6.77-17.36,18.35s7.63,18.34,17.36,18.34c6.03,0,11.33-2.71,14.9-9.11l14.9,8.13c-4.8,10.59-15.76,16.74-29.67,16.74-21.55,0-36.94-14.16-36.94-34.1Z"/>
          <path class="cls-2" d="M486.48,34.1c0-19.95,15.39-34.1,36.44-34.1s36.32,14.16,36.32,34.1-15.27,34.1-36.32,34.1-36.44-14.16-36.44-34.1ZM539.79,34.1c0-11.45-7.26-18.35-16.87-18.35s-16.99,6.89-16.99,18.35,7.39,18.34,16.99,18.34,16.87-6.89,16.87-18.34Z"/>
          <path class="cls-2" d="M683.97,29.3v37.92h-19.21v-34.97c0-10.71-4.8-15.64-12.56-15.64-8.62,0-14.65,5.54-14.65,17.36v33.24h-19.21v-34.97c0-10.71-4.56-15.64-12.56-15.64-8.5,0-14.53,5.54-14.53,17.36v33.24h-19.21V.98h18.34v7.63c4.93-5.66,12.31-8.62,20.81-8.62,9.23,0,17.11,3.57,21.79,10.83,5.29-6.77,13.91-10.83,23.89-10.83,15.76,0,27.09,9.11,27.09,29.3Z"/>
        </g>
        <g>
          <path class="cls-1" d="M413.42,94.18h0s0,0,0-.01c0,0,0,0,0,.01Z"/>
          <path class="cls-3" d="M670.19,80.4h-243s-.02,0-.04,0c7.55.02,13.67,6.18,13.67,13.77s-6.12,13.75-13.67,13.77c.01,0,.02,0,.04,0h243c7.61,0,13.77-6.17,13.77-13.77h0c0-7.61-6.17-13.77-13.77-13.77Z"/>
        </g>
        <ellipse class="cls-2" cx="427.12" cy="94.18" rx="13.7" ry="13.77"/>
      </g>
    </g>
  </g>
</svg>