<?xml version="1.0" encoding="UTF-8"?>
<svg id="Camada_2" data-name="Camada 2" xmlns="http://www.w3.org/2000/svg" xmlns:xlink="http://www.w3.org/1999/xlink" viewBox="0 0 833.37 336.76">
  <defs>
    <style>
      .cls-1 {
        fill: url(#linear-gradient-2);
      }

      .cls-2 {
        fill: url(#Gradiente_sem_nome_3-7);
      }

      .cls-3 {
        fill: #fff;
      }

      .cls-4 {
        fill: url(#Gradiente_sem_nome_3-2);
      }

      .cls-5 {
        fill: url(#linear-gradient-3);
      }

      .cls-6 {
        fill: url(#Gradiente_sem_nome_3-3);
      }

      .cls-7 {
        fill: url(#Gradiente_sem_nome_3-5);
      }

      .cls-8 {
        fill: url(#Gradiente_sem_nome_3);
      }

      .cls-9 {
        fill: url(#Gradiente_sem_nome_3-4);
      }

      .cls-10 {
        fill: url(#linear-gradient);
      }

      .cls-11 {
        fill: url(#Gradiente_sem_nome_3-6);
      }
    </style>
    <linearGradient id="Gradiente_sem_nome_3" data-name="Gradiente sem nome 3" x1="2064.35" y1="86.93" x2="2064.35" y2="-100.14" gradientTransform="translate(2189.71 191.95) rotate(-180)" gradientUnits="userSpaceOnUse">
      <stop offset="0" stop-color="#0e1860"/>
      <stop offset=".39" stop-color="#ea5400"/>
      <stop offset="1" stop-color="blue"/>
    </linearGradient>
    <linearGradient id="Gradiente_sem_nome_3-2" data-name="Gradiente sem nome 3" x1="302.11" y1="42.28" x2="116.7" y2="42.28" gradientTransform="matrix(1,0,0,1,0,0)" xlink:href="#Gradiente_sem_nome_3"/>
    <linearGradient id="Gradiente_sem_nome_3-3" data-name="Gradiente sem nome 3" x1="1852.23" y1="250.9" x2="2192.42" y2="61.25" gradientTransform="translate(2207.7 247.97) rotate(-180)" xlink:href="#Gradiente_sem_nome_3"/>
    <linearGradient id="Gradiente_sem_nome_3-4" data-name="Gradiente sem nome 3" x1="1853.45" y1="248.19" x2="2177.4" y2="67.6" gradientTransform="translate(2207.7 247.97) rotate(-180)" xlink:href="#Gradiente_sem_nome_3"/>
    <linearGradient id="linear-gradient" x1="1924.37" y1="219.59" x2="2144.96" y2="33.42" gradientTransform="translate(2207.7 247.97) rotate(-180)" gradientUnits="userSpaceOnUse">
      <stop offset="0" stop-color="#001ac3"/>
      <stop offset="1" stop-color="#05eaff"/>
    </linearGradient>
    <linearGradient id="Gradiente_sem_nome_3-5" data-name="Gradiente sem nome 3" x1="1927.46" y1="214.72" x2="2135.57" y2="39.08" gradientTransform="translate(2207.7 247.97) rotate(-180)" xlink:href="#Gradiente_sem_nome_3"/>
    <linearGradient id="linear-gradient-2" x1="186.74" y1="28.65" x2="231.27" y2="28.65" gradientUnits="userSpaceOnUse">
      <stop offset="0" stop-color="#f5af19"/>
      <stop offset="1" stop-color="#f12711"/>
    </linearGradient>
    <linearGradient id="linear-gradient-3" x1="186.74" x2="231.27" xlink:href="#linear-gradient-2"/>
    <linearGradient id="Gradiente_sem_nome_3-6" data-name="Gradiente sem nome 3" x1="2073.04" y1="-102.53" x2="1887.62" y2="-102.53" xlink:href="#Gradiente_sem_nome_3"/>
    <linearGradient id="Gradiente_sem_nome_3-7" data-name="Gradiente sem nome 3" x1="576.55" y1="128.41" x2="833.36" y2="128.41" gradientTransform="translate(0 338.76) scale(1 -1)" xlink:href="#Gradiente_sem_nome_3"/>
  </defs>
  <g id="Camada_1-2" data-name="Camada 1">
    <g id="MD1">
      <g id="logo-white">
        <g>
          <path class="cls-8" d="M116.67,116.16v175.92c5.63-.78,11.43-1.7,17.38-2.75V105.01c-6.22,3.72-12.03,7.45-17.38,11.15Z"/>
          <path class="cls-4" d="M300.19,19.57c-.11-.29-.23-.56-.34-.84-.15-.37-.31-.75-.48-1.12-.18-.39-.37-.78-.57-1.16-.12-.23-.24-.47-.37-.7-.24-.43-.48-.86-.74-1.29-.03-.05-.06-.11-.09-.17h0c-5.3-8.57-14.75-14.3-25.54-14.3h-125.27c-16.58,0-30.07,13.49-30.07,30.07v54.49c5.5-3.18,11.32-6.34,17.38-9.47V30.07c0-7,5.69-12.69,12.69-12.69h125.27c.93,0,1.83.13,2.71.32.52.11,1.03.26,1.53.44.15.05.3.1.45.16.61.25,1.21.53,1.77.86.07.04.13.09.2.14.47.29.92.62,1.35.97.19.15.36.32.54.48.3.27.58.56.85.86.18.2.35.39.52.59.28.35.53.72.77,1.1.1.15.21.29.3.45,0,0,0,0,0,0,1.08,1.86,1.7,4.02,1.7,6.33v3.27h17.38v-3.27c0-3.7-.69-7.23-1.92-10.5Z"/>
          <path class="cls-6" d="M.96,178.58c5,14.09,28.94,20.04,64.02,18.36-18.51-1.98-30.71-7.59-34.06-17.02-10.07-28.37,63.81-80.5,165.01-116.43,78.82-27.98,150.97-37.89,183.79-27.5-21.87-21.79-109.25-13.56-206.31,20.9C67.65,94.45-9.57,148.93.96,178.58Z"/>
          <path class="cls-9" d="M63.85,196.99c.38-.02.75-.02,1.13-.04-18.51-1.98-30.71-7.59-34.06-17.02-10.07-28.37,63.81-80.5,165.01-116.43,63.25-22.46,122.18-33.26,159.96-31.28,6.74-.3,13.05-.31,18.86,0-7.71-4.63-19.55-7.27-34.51-8.02-38.85,1.66-91.68,12.79-147.79,32.71C86.69,94.45,9.47,148.93,20,178.58c3.97,11.19,19.91,17.22,43.85,18.4Z"/>
          <path class="cls-10" d="M55.69,172.81c3.78,10.64,19.98,15.92,44.15,16.17-12.26-2.49-20.33-7.25-22.87-14.4-9.3-26.19,58.91-74.32,152.35-107.49,45.6-16.19,88.76-25.81,122.1-28.38-34.28-1.94-88.1,7.86-145.89,28.38C113.63,99.71,46.55,147.05,55.69,172.81Z"/>
          <path class="cls-7" d="M218.74,67.76c-91.9,32.63-158.99,79.96-149.84,105.72,3,8.45,13.88,13.51,30.34,15.37-11.91-2.53-19.77-7.24-22.27-14.26-9.3-26.19,58.91-74.32,152.35-107.49,41.28-14.66,80.53-23.9,112.34-27.44-33.16,2.19-76.76,11.72-122.92,28.11Z"/>
          <g>
            <path class="cls-1" d="M229.56,28.65c0,2.59-2.1,4.7-4.7,4.7s-4.7-2.1-4.7-4.7,2.1-4.7,4.7-4.7,4.7,2.1,4.7,4.7Z"/>
            <path class="cls-5" d="M193.95,33.34h17.21c2.59,0,4.7-2.1,4.7-4.7h0c0-2.59-2.1-4.7-4.7-4.7h-17.21c-2.59,0-4.7,2.1-4.7,4.7h0c0,2.59,2.1,4.7,4.7,4.7Z"/>
          </g>
          <path class="cls-11" d="M118.59,317.19c.11.29.23.56.34.84.15.37.31.75.48,1.12.18.39.37.78.57,1.16.12.23.24.47.37.7.24.43.48.86.74,1.29.03.05.06.11.1.17h0c5.3,8.57,14.75,14.3,25.54,14.3h125.27c16.58,0,30.07-13.49,30.07-30.07v-54.49c-5.5,3.18-11.32,6.34-17.38,9.47v45.01c0,7-5.69,12.69-12.69,12.69h-125.27c-.93,0-1.83-.13-2.71-.32-.52-.11-1.03-.26-1.53-.44-.15-.05-.3-.1-.45-.16-.61-.25-1.21-.53-1.77-.86-.07-.04-.13-.09-.2-.14-.47-.29-.92-.62-1.35-.97-.19-.15-.36-.32-.54-.48-.3-.27-.58-.56-.85-.86-.18-.2-.35-.39-.52-.59-.28-.35-.53-.72-.77-1.1-.1-.15-.21-.29-.3-.45,0,0,0,0,0,0-1.08-1.86-1.7-4.02-1.7-6.33v-3.27h-17.38v3.27c0,3.7.69,7.23,1.92,10.5Z"/>
        </g>
        <g id="Camada_1-2" data-name="Camada 1-2">
          <g id="G2">
            <g id="Logo">
              <g>
                <path class="cls-3" d="M149.4,171.62c0-32.25,24.75-54.89,58.5-54.89,20.55,0,36.75,7.5,47.1,21l-22.35,19.95c-6.15-7.8-13.5-12.3-22.95-12.3-14.7,0-24.6,10.2-24.6,26.25s9.9,26.25,24.6,26.25c9.45,0,16.8-4.5,22.95-12.3l22.35,19.95c-10.35,13.5-26.55,21-47.1,21-33.75-.01-58.5-22.66-58.5-54.91Z"/>
                <path class="cls-3" d="M352.49,197.42v26.7h-87.3v-104.99h85.35v26.7h-50.55v12.3h44.4v25.5h-44.4v13.8h52.5Z"/>
                <path class="cls-3" d="M366.15,119.13h35.4v77.55h47.4v27.45h-82.8v-105h0Z"/>
                <path class="cls-3" d="M458.69,119.13h35.4v77.55h47.4v27.45h-82.8v-105h0Z"/>
              </g>
              <g>
                <path class="cls-3" d="M563.97,150.27c0-19.95,15.39-34.1,36.94-34.1,13.91,0,24.87,6.03,29.67,16.87l-14.9,8c-3.57-6.28-8.86-9.11-14.9-9.11-9.73,0-17.36,6.77-17.36,18.35s7.63,18.34,17.36,18.34c6.03,0,11.33-2.71,14.9-9.11l14.9,8.13c-4.8,10.59-15.76,16.74-29.67,16.74-21.55,0-36.94-14.16-36.94-34.1h0Z"/>
                <path class="cls-3" d="M635.88,150.27c0-19.95,15.39-34.1,36.44-34.1s36.32,14.16,36.32,34.1-15.27,34.1-36.32,34.1-36.44-14.16-36.44-34.1h0ZM689.19,150.27c0-11.45-7.26-18.35-16.87-18.35s-16.99,6.89-16.99,18.35,7.39,18.34,16.99,18.34,16.87-6.89,16.87-18.34Z"/>
                <path class="cls-3" d="M833.37,145.47v37.92h-19.21v-34.97c0-10.71-4.8-15.64-12.56-15.64-8.62,0-14.65,5.54-14.65,17.36v33.24h-19.21v-34.97c0-10.71-4.56-15.64-12.56-15.64-8.5,0-14.53,5.54-14.53,17.36v33.24h-19.21v-66.22h18.34v7.63c4.93-5.66,12.31-8.62,20.81-8.62,9.23,0,17.11,3.57,21.79,10.83,5.29-6.77,13.91-10.83,23.89-10.83,15.76,0,27.09,9.11,27.09,29.3h.01Z"/>
              </g>
              <path class="cls-2" d="M819.59,196.57h-243.04c7.55.02,13.67,6.18,13.67,13.77s-6.12,13.75-13.67,13.77h243.04c7.61,0,13.77-6.17,13.77-13.77h0c0-7.61-6.17-13.77-13.77-13.77Z"/>
              <ellipse class="cls-3" cx="576.52" cy="210.35" rx="13.7" ry="13.77"/>
            </g>
          </g>
        </g>
      </g>
    </g>
  </g>
</svg>