<?xml version="1.0" encoding="UTF-8"?>
<svg id="Camada_2" data-name="Camada 2" xmlns="http://www.w3.org/2000/svg" xmlns:xlink="http://www.w3.org/1999/xlink" viewBox="0 0 469.99 440.5">
  <defs>
    <style>
      .cls-1 {
        fill: url(#linear-gradient-2);
      }

      .cls-2 {
        fill: #fff;
      }

      .cls-3 {
        fill: url(#Gradiente_sem_nome_3-2);
      }

      .cls-4 {
        fill: url(#linear-gradient-3);
      }

      .cls-5 {
        fill: url(#Gradiente_sem_nome_3-3);
      }

      .cls-6 {
        fill: url(#Gradiente_sem_nome_3-5);
      }

      .cls-7 {
        fill: url(#Gradiente_sem_nome_3);
      }

      .cls-8 {
        fill: url(#Gradiente_sem_nome_3-4);
      }

      .cls-9 {
        fill: url(#linear-gradient);
      }
    </style>
    <linearGradient id="Gradiente_sem_nome_3" data-name="Gradiente sem nome 3" x1="442.15" y1="70.9" x2="131.2" y2="70.9" gradientUnits="userSpaceOnUse">
      <stop offset="0" stop-color="#0e1860"/>
      <stop offset=".39" stop-color="#ea5400"/>
      <stop offset="1" stop-color="blue"/>
    </linearGradient>
    <linearGradient id="Gradiente_sem_nome_3-2" data-name="Gradiente sem nome 3" x1="1507.52" y1="-1981.84" x2="1904.15" y2="-2202.95" gradientTransform="translate(2436.03 -1401.64) rotate(-164.54)" xlink:href="#Gradiente_sem_nome_3"/>
    <linearGradient id="Gradiente_sem_nome_3-3" data-name="Gradiente sem nome 3" x1="1508.94" y1="-1985" x2="1886.64" y2="-2195.55" gradientTransform="translate(2436.03 -1401.64) rotate(-164.54)" xlink:href="#Gradiente_sem_nome_3"/>
    <linearGradient id="linear-gradient" x1="1591.63" y1="-2018.35" x2="1848.81" y2="-2235.41" gradientTransform="translate(2436.03 -1401.64) rotate(-164.54)" gradientUnits="userSpaceOnUse">
      <stop offset="0" stop-color="#001ac3"/>
      <stop offset="1" stop-color="#05eaff"/>
    </linearGradient>
    <linearGradient id="Gradiente_sem_nome_3-4" data-name="Gradiente sem nome 3" x1="1595.23" y1="-2024.03" x2="1837.87" y2="-2228.81" gradientTransform="translate(2436.03 -1401.64) rotate(-164.54)" xlink:href="#Gradiente_sem_nome_3"/>
    <linearGradient id="linear-gradient-2" x1="252.58" y1="55.15" x2="327.26" y2="55.15" gradientUnits="userSpaceOnUse">
      <stop offset="0" stop-color="#f5af19"/>
      <stop offset="1" stop-color="#f12711"/>
    </linearGradient>
    <linearGradient id="linear-gradient-3" x1="252.58" x2="327.26" xlink:href="#linear-gradient-2"/>
    <linearGradient id="Gradiente_sem_nome_3-5" data-name="Gradiente sem nome 3" x1="146.97" y1="-2204.02" x2="441.8" y2="-2204.02" gradientTransform="translate(0 -1889.57) scale(1 -1)" xlink:href="#Gradiente_sem_nome_3"/>
  </defs>
  <g id="Camada_1-2" data-name="Camada 1">
    <g id="MD3">
      <g>
        <g>
          <path class="cls-7" d="M438.92,32.82c-.18-.48-.38-.94-.58-1.42-.26-.63-.52-1.26-.8-1.87-.3-.66-.62-1.3-.95-1.95-.2-.39-.41-.79-.62-1.17-.4-.73-.81-1.45-1.24-2.16-.06-.09-.1-.19-.16-.28h-.02c-8.89-14.36-24.74-23.98-42.84-23.98h-210.09c-27.81,0-50.43,22.62-50.43,50.43v91.38c9.22-5.32,18.98-10.63,29.15-15.89V50.43c0-11.73,9.55-21.28,21.28-21.28h210.09c1.56,0,3.07.21,4.54.54.88.19,1.73.44,2.56.74.25.09.51.17.76.27,1.03.41,2.03.89,2.98,1.45.12.07.22.16.33.23.8.49,1.55,1.04,2.27,1.63.31.26.61.53.9.8.5.46.97.94,1.42,1.44.29.33.59.65.87,1,.47.59.89,1.21,1.29,1.84.16.25.35.49.5.75,0,0,0,0,.01,0,1.81,3.12,2.85,6.75,2.85,10.61v5.49h29.15v-5.49c0-6.2-1.16-12.13-3.23-17.61Z"/>
          <path class="cls-3" d="M.05,200.51c1.24,17.39,26.29,31.51,66.24,40.53-20.18-7.98-32.15-18.08-32.98-29.71-2.5-35.01,96.72-70.63,221.61-79.55,97.27-6.95,181.42,4.34,215.07,26.21-17.81-31.28-118.55-49.19-238.33-40.62C101.13,126.7-2.57,163.92.05,200.51Z"/>
          <path class="cls-5" d="M65,240.74c.43.1.85.21,1.28.31-20.18-7.98-32.15-18.08-32.98-29.71-2.5-35.01,96.72-70.63,221.61-79.55,78.06-5.58,147.63.6,189.48,14.55,7.67,1.76,14.76,3.71,21.19,5.85-7.23-7.6-19.71-14.24-36.29-19.73-44.17-10.21-107-14.12-176.23-9.17-130.53,9.33-234.23,46.55-231.61,83.15.99,13.81,17.02,25.54,43.56,34.31Z"/>
          <path class="cls-9" d="M63.35,211.04c.94,13.13,17.51,24.1,44.58,31.9-13-6.61-20.6-14.47-21.23-23.29-2.31-32.32,89.3-65.21,204.61-73.45,56.28-4.02,107.76-1.42,146.03,6.05-37.92-12.84-101.45-18.54-172.76-13.45-113.41,8.11-203.51,40.45-201.24,72.24Z"/>
          <path class="cls-8" d="M279.21,143.66c-113.41,8.11-203.51,40.45-201.24,72.24.75,10.43,11.39,19.5,29.32,26.7-12.6-6.54-19.97-14.28-20.59-22.95-2.31-32.32,89.3-65.21,204.61-73.45,50.94-3.64,97.92-1.84,134.76,4.07-37.95-7.84-89.9-10.68-146.86-6.61Z"/>
          <g>
            <path class="cls-1" d="M324.39,55.15c0,4.35-3.53,7.88-7.88,7.88s-7.88-3.53-7.88-7.88,3.53-7.88,7.88-7.88,7.88,3.53,7.88,7.88Z"/>
            <path class="cls-4" d="M264.68,63.03h28.86c4.35,0,7.88-3.53,7.88-7.88h0c0-4.35-3.53-7.88-7.88-7.88h-28.86c-4.35,0-7.88,3.53-7.88,7.88h0c0,4.35,3.53,7.88,7.88,7.88Z"/>
          </g>
        </g>
        <g id="Camada_1-2" data-name="Camada 1-2">
          <g id="G3">
            <g id="Logo">
              <g>
                <path class="cls-2" d="M131.2,230.78c0-25.55,19.6-43.49,46.34-43.49,16.28,0,29.11,5.94,37.31,16.64h0l-17.7,15.8h0c-4.87-6.18-10.69-9.74-18.18-9.74-11.65,0-19.49,8.08-19.49,20.79s7.84,20.79,19.49,20.79c7.48,0,13.31-3.57,18.18-9.74h0l17.7,15.8h0c-8.2,10.69-21.03,16.64-37.31,16.64-26.74,0-46.34-17.94-46.34-43.49Z"/>
                <path class="cls-2" d="M292.09,251.21v21.15h-69.15v-83.17h67.61v21.15h-40.04v9.74h35.17v20.2h-35.17v10.93h41.59Z"/>
                <path class="cls-2" d="M302.9,189.19h28.04v61.43h37.55v21.74h-65.59v-83.17h0Z"/>
                <path class="cls-2" d="M376.22,189.19h28.04v61.43h37.55v21.74h-65.59v-83.17h0Z"/>
              </g>
              <g>
                <path class="cls-2" d="M131.2,401.18c0-23,17.75-39.32,42.59-39.32,16.04,0,28.67,6.96,34.21,19.45h0l-17.17,9.22h0c-4.12-7.24-10.22-10.5-17.17-10.5-11.21,0-20.01,7.81-20.01,21.15s8.8,21.15,20.01,21.15c6.96,0,13.06-3.12,17.17-10.5h0l17.17,9.37h0c-5.53,12.21-18.17,19.31-34.21,19.31-24.84,0-42.59-16.32-42.59-39.32Z"/>
                <path class="cls-2" d="M214.11,401.18c0-23,17.75-39.32,42.02-39.32s41.88,16.32,41.88,39.32-17.6,39.32-41.88,39.32-42.02-16.32-42.02-39.32ZM275.58,401.18c0-13.2-8.37-21.15-19.45-21.15s-19.59,7.95-19.59,21.15,8.52,21.15,19.59,21.15,19.45-7.95,19.45-21.15Z"/>
                <path class="cls-2" d="M441.8,395.64v43.72h-22.14v-40.31c0-12.35-5.53-18.03-14.48-18.03-9.94,0-16.89,6.39-16.89,20.01v38.33h-22.14v-40.31c0-12.35-5.26-18.03-14.48-18.03-9.8,0-16.75,6.39-16.75,20.01v38.33h-22.14v-76.37h21.15v8.8h0c5.68-6.53,14.19-9.94,23.99-9.94,10.65,0,19.73,4.12,25.13,12.49h0c6.11-7.81,16.04-12.49,27.54-12.49,18.17,0,31.23,10.5,31.23,33.78h0Z"/>
              </g>
              <g>
                <path class="cls-6" d="M425.99,298.64H146.97c8.67.02,15.69,7.09,15.69,15.81s-7.02,15.79-15.69,15.81h279.02c8.73,0,15.81-7.08,15.81-15.81h0c0-8.73-7.08-15.81-15.81-15.81Z"/>
                <ellipse class="cls-2" cx="146.93" cy="314.45" rx="15.73" ry="15.81"/>
              </g>
            </g>
          </g>
        </g>
      </g>
    </g>
  </g>
</svg>